<svg width="32" height="32" viewBox="0 0 32 32" fill="none" xmlns="http://www.w3.org/2000/svg">
<g clip-path="url(#clip0_5_2)">
<path d="M6.16 22.06C5.58667 22.06 5.13333 21.8933 4.8 21.56C4.46667 21.2267 4.3 20.7733 4.3 20.2V9.86C4.44667 9.83333 4.68 9.8 5 9.76C5.32 9.70667 5.62667 9.68 5.92 9.68C6.22667 9.68 6.49333 9.70667 6.72 9.76C6.96 9.8 7.16 9.88 7.32 10C7.48 10.12 7.6 10.2867 7.68 10.5C7.76 10.7133 7.8 10.9933 7.8 11.34V19.24H12.38C12.4733 19.3867 12.56 19.5867 12.64 19.84C12.72 20.08 12.76 20.3333 12.76 20.6C12.76 21.1333 12.6467 21.5133 12.42 21.74C12.1933 21.9533 11.8933 22.06 11.52 22.06H6.16ZM20.4539 15.84C20.4539 15.4267 20.3339 15.1267 20.0939 14.94C19.8672 14.74 19.5539 14.64 19.1539 14.64C18.8872 14.64 18.6206 14.6733 18.3539 14.74C18.1006 14.8067 17.8806 14.9067 17.6939 15.04V21.98C17.5606 22.02 17.3472 22.06 17.0539 22.1C16.7739 22.14 16.4806 22.16 16.1739 22.16C15.8806 22.16 15.6139 22.14 15.3739 22.1C15.1472 22.06 14.9539 21.98 14.7939 21.86C14.6339 21.74 14.5072 21.58 14.4139 21.38C14.3339 21.1667 14.2939 20.8933 14.2939 20.56V14.56C14.2939 14.2 14.3672 13.9067 14.5139 13.68C14.6739 13.4533 14.8872 13.2467 15.1539 13.06C15.6072 12.74 16.1739 12.48 16.8539 12.28C17.5472 12.08 18.3139 11.98 19.1539 11.98C20.6606 11.98 21.8206 12.3133 22.6339 12.98C23.4472 13.6333 23.8539 14.5467 23.8539 15.72V21.98C23.7206 22.02 23.5072 22.06 23.2139 22.1C22.9339 22.14 22.6406 22.16 22.3339 22.16C22.0406 22.16 21.7739 22.14 21.5339 22.1C21.3072 22.06 21.1139 21.98 20.9539 21.86C20.7939 21.74 20.6672 21.58 20.5739 21.38C20.4939 21.1667 20.4539 20.8933 20.4539 20.56V15.84ZM25.3541 20.38C25.3541 19.82 25.5274 19.3533 25.8741 18.98C26.2207 18.6067 26.6941 18.42 27.2941 18.42C27.8941 18.42 28.3674 18.6067 28.7141 18.98C29.0607 19.3533 29.2341 19.82 29.2341 20.38C29.2341 20.94 29.0607 21.4067 28.7141 21.78C28.3674 22.1533 27.8941 22.34 27.2941 22.34C26.6941 22.34 26.2207 22.1533 25.8741 21.78C25.5274 21.4067 25.3541 20.94 25.3541 20.38Z" fill="#8AB48D"/>
</g>
<defs>
<clipPath id="clip0_5_2">
<rect width="32" height="32" fill="white"/>
</clipPath>
</defs>
</svg>
