<svg width="22" height="15" viewBox="0 0 22 15" fill="none" xmlns="http://www.w3.org/2000/svg">
<path d="M0.74 4.68C0.646667 4.53333 0.56 4.33333 0.48 4.08C0.4 3.82667 0.36 3.56 0.36 3.28C0.36 2.76 0.473333 2.38667 0.7 2.16C0.94 1.93333 1.24667 1.82 1.62 1.82H10.34C10.4333 1.96667 10.52 2.16667 10.6 2.42C10.68 2.67333 10.72 2.94 10.72 3.22C10.72 3.74 10.6 4.11333 10.36 4.34C10.1333 4.56667 9.83333 4.68 9.46 4.68H7.24V13.92C7.09333 13.96 6.86 14 6.54 14.04C6.23333 14.08 5.92667 14.1 5.62 14.1C5.31333 14.1 5.04 14.0733 4.8 14.02C4.57333 13.98 4.38 13.9 4.22 13.78C4.06 13.66 3.94 13.4933 3.86 13.28C3.78 13.0667 3.74 12.7867 3.74 12.44V4.68H0.74Z" fill="#4FAB63"/>
<path d="M21.6533 12.24C21.5866 12.8667 21.3999 13.3467 21.0933 13.68C20.7999 14.0133 20.3666 14.18 19.7933 14.18C19.3666 14.18 18.9866 14.08 18.6533 13.88C18.3199 13.6667 17.9599 13.3133 17.5733 12.82L15.5933 10.34V13.98C15.4466 14.0067 15.2266 14.04 14.9333 14.08C14.6533 14.1333 14.3666 14.16 14.0733 14.16C13.7799 14.16 13.5133 14.14 13.2733 14.1C13.0466 14.06 12.8533 13.98 12.6933 13.86C12.5333 13.74 12.4066 13.58 12.3133 13.38C12.2333 13.1667 12.1933 12.8933 12.1933 12.56V0.98C12.3399 0.939999 12.5533 0.899999 12.8333 0.86C13.1266 0.806666 13.4199 0.78 13.7133 0.78C14.0066 0.78 14.2666 0.799999 14.4933 0.839999C14.7333 0.879999 14.9333 0.959999 15.0933 1.08C15.2533 1.2 15.3733 1.36667 15.4533 1.58C15.5466 1.78 15.5933 2.04667 15.5933 2.38V7.66L19.0333 4.14C19.7266 4.14 20.2799 4.29333 20.6933 4.6C21.1199 4.90667 21.3333 5.29333 21.3333 5.76C21.3333 5.96 21.2999 6.14667 21.2333 6.32C21.1666 6.48 21.0599 6.64667 20.9133 6.82C20.7799 6.99333 20.5999 7.18 20.3733 7.38C20.1599 7.56667 19.9066 7.78667 19.6133 8.04L18.4533 9.04L21.6533 12.24Z" fill="#F1FFFA"/>
</svg>
