<svg width="64" height="25" viewBox="0 0 64 25" fill="none" xmlns="http://www.w3.org/2000/svg">
<g clip-path="url(#clip0_75_2)">
<path d="M0.74 11.68C0.646667 11.5333 0.56 11.3333 0.48 11.08C0.4 10.8267 0.36 10.56 0.36 10.28C0.36 9.76 0.473333 9.38667 0.7 9.16C0.94 8.93333 1.24667 8.82 1.62 8.82H10.34C10.4333 8.96667 10.52 9.16667 10.6 9.42C10.68 9.67333 10.72 9.94 10.72 10.22C10.72 10.74 10.6 11.1133 10.36 11.34C10.1333 11.5667 9.83333 11.68 9.46 11.68H7.24V20.92C7.09333 20.96 6.86 21 6.54 21.04C6.23333 21.08 5.92667 21.1 5.62 21.1C5.31333 21.1 5.04 21.0733 4.8 21.02C4.57333 20.98 4.38 20.9 4.22 20.78C4.06 20.66 3.94 20.4933 3.86 20.28C3.78 20.0667 3.74 19.7867 3.74 19.44V11.68H0.74Z" fill="#4FAB63"/>
<path d="M15.9333 16.5V20.92C15.7866 20.96 15.5533 21 15.2333 21.04C14.9133 21.08 14.5999 21.1 14.2933 21.1C13.9866 21.1 13.7133 21.0733 13.4733 21.02C13.2466 20.98 13.0533 20.9 12.8933 20.78C12.7333 20.66 12.6133 20.4933 12.5333 20.28C12.4533 20.0667 12.4133 19.7867 12.4133 19.44V8.88C12.5599 8.85333 12.7933 8.82 13.1133 8.78C13.4333 8.72667 13.7399 8.7 14.0333 8.7C14.3399 8.7 14.6066 8.72667 14.8333 8.78C15.0733 8.82 15.2733 8.9 15.4333 9.02C15.5933 9.14 15.7133 9.30667 15.7933 9.52C15.8733 9.73333 15.9133 10.0133 15.9133 10.36V13.54L20.0733 8.76C20.9799 8.76 21.6266 8.93333 22.0133 9.28C22.4133 9.61333 22.6133 10.0133 22.6133 10.48C22.6133 10.8267 22.5266 11.1533 22.3533 11.46C22.1799 11.7667 21.8999 12.1133 21.5133 12.5L19.0133 15C19.3466 15.3733 19.6933 15.76 20.0533 16.16C20.4266 16.56 20.7866 16.9533 21.1333 17.34C21.4933 17.7133 21.8333 18.0733 22.1533 18.42C22.4866 18.7667 22.7733 19.0667 23.0133 19.32C23.0133 19.6133 22.9599 19.8733 22.8533 20.1C22.7466 20.3267 22.5999 20.52 22.4133 20.68C22.2399 20.84 22.0399 20.96 21.8133 21.04C21.5866 21.12 21.3466 21.16 21.0933 21.16C20.5466 21.16 20.0999 21.0267 19.7533 20.76C19.4066 20.48 19.0733 20.1533 18.7533 19.78L15.9333 16.5ZM24.158 11.68C24.0646 11.5333 23.978 11.3333 23.898 11.08C23.818 10.8267 23.778 10.56 23.778 10.28C23.778 9.76 23.8913 9.38667 24.118 9.16C24.358 8.93333 24.6646 8.82 25.038 8.82H33.758C33.8513 8.96667 33.938 9.16667 34.018 9.42C34.098 9.67333 34.138 9.94 34.138 10.22C34.138 10.74 34.018 11.1133 33.778 11.34C33.5513 11.5667 33.2513 11.68 32.878 11.68H30.658V20.92C30.5113 20.96 30.278 21 29.958 21.04C29.6513 21.08 29.3446 21.1 29.038 21.1C28.7313 21.1 28.458 21.0733 28.218 21.02C27.9913 20.98 27.798 20.9 27.638 20.78C27.478 20.66 27.358 20.4933 27.278 20.28C27.198 20.0667 27.158 19.7867 27.158 19.44V11.68H24.158ZM35.3936 8.58C35.3936 8.07333 35.5603 7.64667 35.8936 7.3C36.2403 6.95333 36.6936 6.78 37.2536 6.78C37.8136 6.78 38.2603 6.95333 38.5936 7.3C38.9403 7.64667 39.1136 8.07333 39.1136 8.58C39.1136 9.08667 38.9403 9.51333 38.5936 9.86C38.2603 10.2067 37.8136 10.38 37.2536 10.38C36.6936 10.38 36.2403 10.2067 35.8936 9.86C35.5603 9.51333 35.3936 9.08667 35.3936 8.58ZM38.9536 20.98C38.8069 21.0067 38.5869 21.04 38.2936 21.08C38.0136 21.1333 37.7269 21.16 37.4336 21.16C37.1403 21.16 36.8736 21.14 36.6336 21.1C36.4069 21.06 36.2136 20.98 36.0536 20.86C35.8936 20.74 35.7669 20.58 35.6736 20.38C35.5936 20.1667 35.5536 19.8933 35.5536 19.56V11.42C35.7003 11.3933 35.9136 11.36 36.1936 11.32C36.4869 11.2667 36.7803 11.24 37.0736 11.24C37.3669 11.24 37.6269 11.26 37.8536 11.3C38.0936 11.34 38.2936 11.42 38.4536 11.54C38.6136 11.66 38.7336 11.8267 38.8136 12.04C38.9069 12.24 38.9536 12.5067 38.9536 12.84V20.98ZM47.2781 14.84C47.2781 14.4267 47.1581 14.1267 46.9181 13.94C46.6915 13.74 46.3781 13.64 45.9781 13.64C45.7115 13.64 45.4448 13.6733 45.1781 13.74C44.9248 13.8067 44.7048 13.9067 44.5181 14.04V20.98C44.3848 21.02 44.1715 21.06 43.8781 21.1C43.5981 21.14 43.3048 21.16 42.9981 21.16C42.7048 21.16 42.4381 21.14 42.1981 21.1C41.9715 21.06 41.7781 20.98 41.6181 20.86C41.4581 20.74 41.3315 20.58 41.2381 20.38C41.1581 20.1667 41.1181 19.8933 41.1181 19.56V13.56C41.1181 13.2 41.1915 12.9067 41.3381 12.68C41.4981 12.4533 41.7115 12.2467 41.9781 12.06C42.4315 11.74 42.9981 11.48 43.6781 11.28C44.3715 11.08 45.1381 10.98 45.9781 10.98C47.4848 10.98 48.6448 11.3133 49.4581 11.98C50.2715 12.6333 50.6781 13.5467 50.6781 14.72V20.98C50.5448 21.02 50.3315 21.06 50.0381 21.1C49.7581 21.14 49.4648 21.16 49.1581 21.16C48.8648 21.16 48.5981 21.14 48.3581 21.1C48.1315 21.06 47.9381 20.98 47.7781 20.86C47.6181 20.74 47.4915 20.58 47.3981 20.38C47.3181 20.1667 47.2781 19.8933 47.2781 19.56V14.84ZM57.5183 10.98C58.2783 10.98 58.9649 11.08 59.5783 11.28C60.2049 11.4667 60.7316 11.7133 61.1583 12.02C61.4249 12.2067 61.6316 12.4133 61.7783 12.64C61.9383 12.8667 62.0183 13.16 62.0183 13.52V20.52C62.0183 21.2267 61.8849 21.8333 61.6183 22.34C61.3516 22.86 60.9849 23.2867 60.5183 23.62C60.0649 23.9667 59.5249 24.22 58.8983 24.38C58.2849 24.54 57.6249 24.62 56.9183 24.62C55.7049 24.62 54.7516 24.4533 54.0583 24.12C53.3649 23.8 53.0183 23.2733 53.0183 22.54C53.0183 22.2333 53.0783 21.96 53.1983 21.72C53.3316 21.4933 53.4783 21.32 53.6383 21.2C54.0249 21.4133 54.4583 21.5933 54.9383 21.74C55.4316 21.8867 55.9383 21.96 56.4583 21.96C57.1783 21.96 57.7516 21.84 58.1783 21.6C58.6049 21.36 58.8183 20.9733 58.8183 20.44V20.12C58.2716 20.36 57.6049 20.48 56.8183 20.48C56.2183 20.48 55.6449 20.3933 55.0983 20.22C54.5649 20.0333 54.0916 19.7533 53.6783 19.38C53.2783 18.9933 52.9516 18.5 52.6983 17.9C52.4583 17.3 52.3383 16.5867 52.3383 15.76C52.3383 14.9467 52.4649 14.24 52.7183 13.64C52.9849 13.04 53.3449 12.5467 53.7983 12.16C54.2649 11.76 54.8116 11.4667 55.4383 11.28C56.0783 11.08 56.7716 10.98 57.5183 10.98ZM58.7583 13.88C58.6649 13.8267 58.5249 13.7733 58.3383 13.72C58.1649 13.6667 57.9449 13.64 57.6783 13.64C57.0249 13.64 56.5316 13.8267 56.1983 14.2C55.8783 14.56 55.7183 15.08 55.7183 15.76C55.7183 16.5333 55.8783 17.0933 56.1983 17.44C56.5316 17.7733 56.9516 17.94 57.4583 17.94C58.0049 17.94 58.4383 17.8133 58.7583 17.56V13.88Z" fill="#F1FFFA" fill-opacity="0.905882"/>
</g>
<defs>
<clipPath id="clip0_75_2">
<rect width="64" height="25" fill="white"/>
</clipPath>
</defs>
</svg>
