<svg width="32" height="32" viewBox="0 0 32 32" fill="none" xmlns="http://www.w3.org/2000/svg">
<g clip-path="url(#clip0_5_2)">
<path d="M3.74 12.68C3.64667 12.5333 3.56 12.3333 3.48 12.08C3.4 11.8267 3.36 11.56 3.36 11.28C3.36 10.76 3.47333 10.3867 3.7 10.16C3.94 9.93333 4.24667 9.82 4.62 9.82H13.34C13.4333 9.96667 13.52 10.1667 13.6 10.42C13.68 10.6733 13.72 10.94 13.72 11.22C13.72 11.74 13.6 12.1133 13.36 12.34C13.1333 12.5667 12.8333 12.68 12.46 12.68H10.24V21.92C10.0933 21.96 9.86 22 9.54 22.04C9.23333 22.08 8.92667 22.1 8.62 22.1C8.31333 22.1 8.04 22.0733 7.8 22.02C7.57333 21.98 7.38 21.9 7.22 21.78C7.06 21.66 6.94 21.4933 6.86 21.28C6.78 21.0667 6.74 20.7867 6.74 20.44V12.68H3.74Z" fill="#4FAB63"/>
<path d="M18.9333 17.5V21.92C18.7866 21.96 18.5533 22 18.2333 22.04C17.9133 22.08 17.5999 22.1 17.2933 22.1C16.9866 22.1 16.7133 22.0733 16.4733 22.02C16.2466 21.98 16.0533 21.9 15.8933 21.78C15.7333 21.66 15.6133 21.4933 15.5333 21.28C15.4533 21.0667 15.4133 20.7867 15.4133 20.44V9.88C15.5599 9.85333 15.7933 9.82 16.1133 9.78C16.4333 9.72667 16.7399 9.7 17.0333 9.7C17.3399 9.7 17.6066 9.72667 17.8333 9.78C18.0733 9.82 18.2733 9.9 18.4333 10.02C18.5933 10.14 18.7133 10.3067 18.7933 10.52C18.8733 10.7333 18.9133 11.0133 18.9133 11.36V14.54L23.0733 9.76C23.9799 9.76 24.6266 9.93333 25.0133 10.28C25.4133 10.6133 25.6133 11.0133 25.6133 11.48C25.6133 11.8267 25.5266 12.1533 25.3533 12.46C25.1799 12.7667 24.8999 13.1133 24.5133 13.5L22.0133 16C22.3466 16.3733 22.6933 16.76 23.0533 17.16C23.4266 17.56 23.7866 17.9533 24.1333 18.34C24.4933 18.7133 24.8333 19.0733 25.1533 19.42C25.4866 19.7667 25.7733 20.0667 26.0133 20.32C26.0133 20.6133 25.9599 20.8733 25.8533 21.1C25.7466 21.3267 25.5999 21.52 25.4133 21.68C25.2399 21.84 25.0399 21.96 24.8133 22.04C24.5866 22.12 24.3466 22.16 24.0933 22.16C23.5466 22.16 23.0999 22.0267 22.7533 21.76C22.4066 21.48 22.0733 21.1533 21.7533 20.78L18.9333 17.5Z" fill="#F1FFFA"/>
</g>
<defs>
<clipPath id="clip0_5_2">
<rect width="32" height="32" fill="white"/>
</clipPath>
</defs>
</svg>
